<mxfile host="app.diagrams.net" modified="2024-03-14T14:06:07.743Z" agent="Mozilla/5.0 (Windows NT 10.0; Win64; x64) AppleWebKit/537.36 (KHTML, like Gecko) Chrome/122.0.0.0 Safari/537.36" etag="Uw8rLVzSLcA4sxh1vcOh" version="24.0.0" type="github">
  <diagram name="Seite-1" id="lkh3fDWLsdixxrKsW-YR">
    <mxGraphModel dx="479" dy="241" grid="1" gridSize="10" guides="1" tooltips="1" connect="1" arrows="1" fold="1" page="1" pageScale="1" pageWidth="827" pageHeight="1169" math="0" shadow="0">
      <root>
        <mxCell id="0" />
        <mxCell id="1" parent="0" />
        <mxCell id="dIxcsWShx4_83990aHsz-1" value="" style="sketch=0;pointerEvents=1;shadow=0;dashed=0;html=1;strokeColor=none;fillColor=#323232;labelPosition=center;verticalLabelPosition=bottom;verticalAlign=top;outlineConnect=0;align=center;shape=mxgraph.office.devices.laptop;" vertex="1" parent="1">
          <mxGeometry x="540" y="520" width="58" height="34" as="geometry" />
        </mxCell>
        <mxCell id="dIxcsWShx4_83990aHsz-2" value="" style="ellipse;whiteSpace=wrap;html=1;aspect=fixed;direction=south;fillColor=#F5333F;strokeColor=#F5333F;" vertex="1" parent="1">
          <mxGeometry x="567" y="525" width="4" height="4" as="geometry" />
        </mxCell>
        <mxCell id="dIxcsWShx4_83990aHsz-5" value="" style="sketch=0;pointerEvents=1;shadow=0;dashed=0;html=1;strokeColor=none;fillColor=#323232;labelPosition=center;verticalLabelPosition=bottom;verticalAlign=top;outlineConnect=0;align=center;shape=mxgraph.office.devices.laptop;" vertex="1" parent="1">
          <mxGeometry x="540" y="460" width="58" height="34" as="geometry" />
        </mxCell>
        <mxCell id="dIxcsWShx4_83990aHsz-6" value="" style="ellipse;whiteSpace=wrap;html=1;aspect=fixed;direction=south;fillColor=#F5333F;strokeColor=#F5333F;" vertex="1" parent="1">
          <mxGeometry x="567" y="465" width="4" height="4" as="geometry" />
        </mxCell>
        <mxCell id="dIxcsWShx4_83990aHsz-7" value="" style="shape=image;verticalLabelPosition=bottom;labelBackgroundColor=default;verticalAlign=top;aspect=fixed;imageAspect=0;image=data:image/png,iVBORw0KGgoAAAANSUhEUgAAAFoAAABZCAIAAAAxXqT7AAAAAXNSR0IArs4c6QAAAARnQU1BAACxjwv8YQUAAAAJcEhZcwAAFiUAABYlAUlSJPAAABAvSURBVHhe7ZwLdJTF2cebRLnkKBzxEEKAYC4CJg2tMeFqEEyLaFChgFbBFj6ghVLKQUAqIhQVTNWES0Hu/fSTVECwQKWAiIpioYCaT4mFGIIhm70ku9ns/Zqc/t53XtLdZIPJZlchzf/M4WTmnXlmnv/MPJd3d/lBXTt80E6HH9rp8EM7HX4IQIdKpZo5c2aXLl2ioqJ+0OaAUqiGgqipKOyDhnQUFxcvWbIkISHhhhtuiIiIUGS0IaAUqqEgaqKsovYV+NEBYXSKjY3t1KlTcnJyTk5OXl7egTYE1EEpVENB1ETZBmfEj45Zs2YlJibSNTMzc9OmTWfOnHE4HMqzNgHUQSlUQ0HURFlUVp7J8KMjPj4+Ojoa8higNNXV1V6BUm/UolR8Olz7QEHURFlUVppk+NHRoUOHyMjIsWPHQqHSVFen0+mekGE0GqlaLBZRFcfM7XbPnz+f6ldffSV3vz6AgqiJsqisNMnwo0MYm+nTp0OB0lRXV1paKtrVajVVg8EgqkVFRVQ5fn369KH6/vvvy92vD7Ds/Px8oYjSJCMAHStXrmTPlaa6upqamvUyrFYrVQSJKrxQ9Xg8r732GtXy8nK5+3UDLKvQV6nLCEAH/ZR6m0Y7HX5oGR14in379j3fdjFq1Cihr9Bd4Gp04C9ES9uG0F3ganQUFBTgRNsqBg8eLPQVugs0SUebR8tsR5tH8HRwcTwVKsepf9gOvWP96576Yjt4wP7xcXfpxVqPR+l6/SAYOiDCa7W6Sr6ufmG59qHRqh/1L0/sWV9UP0zS/DTLsHCes/Azr6mGzsqwUEOv11+QUVJS4vV6aXE6naJFoKqqSvQkaFSamoBGoxHrDIYOr9ls2f0XzQPZ5f3jywf0rUhPUQ+/S313BqViWHrFXSnldyTAiyb7btOGtZ4rawo58Itibd26dbPZbLSgmGgRIFUXPbdt26Y0NQHcZfB0OD//VDfpofLbe0s6jx5R/YdnbO/stx97l2Ldu9u4agVHRnqa3AvKrO/sV4aFGtcEHR693vjSStXAfqqUBN3PxzuLznFxap3OWpdLKk6n12Z1q8qrfjOTY8LFqZo3m2o4rgzpUqUMLoWQT64kWgTIs0VPu92uNDUBk8kkeraYDvvxD3SPjuOaaB66z/lFoaXGWFFRcfr0aZJXcOrUqUuXLtmsVsfFkqq5s8oH3IYdsewsuF7MagvpqK01bd2ozsqsyEyrfu7ZWq+XTP/pp59OSEgQ3Xr16jVjxozCwkK2y/LmDqlnRqp+wdxan2z4WkaL6TA88xTmU/vwGNvhg+hMIt+3b9+IiIgbZURGRsbExCxcuJBHjk/PVk6bXN6vj+a+kVwiWVgowRTfipb2bDEd+oXzypPidI9PxI8iJTc3Fxa6d+/+sIzbbrstKipq/PjxPCL00D/5W8xtxYjB4aDj5MmTc+fOfaAJzJkz58SJE6Kn6/xXxpV/qPyfKQGL4ZlF9g+V11QtoEPi0OHQTZmEhpVTHnGe+5IGYd5jY2N/IaNfv35U09PTtVqtqegc0YdEx/CMcNCxfv16fIq8ugDgUV5enuhJZFiR8UNWErAQNxlffI6dpmfL6PBWG7QP/hQRlb/8uevCv2hZvXr1zTff3KVLlyEyevTo0blz5zFjxkjm+godqkEDPVolzmkK2FqPweAu+8ZVUuwqvlBf3JcuSmPtkh9tALETUP9GI2RmZvKo3tFadhWwDPWoIZa33vQNoClid7FuQdFhMWsnPijRMfUx19fFtOzfvx8WOnXqJLp16NAhNTU1Pz+fR+5vSg0LfifR8eMB0s1qwrnQE0PrJsZ97lnckAjh6kvF0Durfj3NevCA5Mu9Xvoqw67QQRqq1H0AETxqQId+zkzf4QLm//uz9CgIOvgbcVXzJXNAxOE480+q+PaNGzempaWJbsnJycuWLauurqaz6+sL+t/NorNq+F3cMllYABCnmF5dp8nJxuhilejvV2i5vTeOrOpXU53nvoARZdi1QAdjjHm5+E6CUfOO15AOHA4HSYFBhtFoJEAUs9o/OKab+KBq4O2Vv3yMCE0a3gj0tLz5hnbc/QR1qtREoljOiGnTevP2zaYtrxpfXsWt5IDAiOrOOwyL53u0WmXkFTrwa/KbCj8kJSXxqAEdFYMGVq9YanxhuW/B67WKDsveXZr77+X8V82e7qk2CM0bQJBk/ONKdpVExvjKiwHjDrbara7AtkMZpk7/5FxcgEen89YYvSYT6Z9HX4V7Mv/lDdIfFk1mZDt0sP6gbd26NS4uTiyvMXr27ImtFT1tR/7OWCQELExdk/9SUHSQsHxRWDXjF9IBHvwj69/2BXQZ6EniT2xC2sK/HBPfQ16PWrudswplBDL6+XPMn50lMeWg6XQ6tVpNlkn0zdGzaNTm/93K8UEa2+i6+LUYfv78eRjhjATEli1b6j/0IkuwvLWz5k+rAxZzwetcQ9GzxXRI2/7Ki5wOKR/59VSPQd/wgFB3OgzP/h6+VGnJ+nmzvVZLwEOE6phJ+pAHE/vDRVlZ2dSpU8WeY5UzMjJ2797N7SMtElZW+9B99o8+UMaHAS2nA2X//3Mp3EyKgxHr27tr5WyyHpgJxz9OiAuvmzDW9u6hgFwAcn/uMxa06jcz8KkchMmTJ8NF/VdIOnbsmJWVdfbsWc5gzZqXkUmMwD4r48OAFtMBvNXVpvVrJI+YFFc59XFX8XnlgQyU1EvJW1/yt+qli90VAb5AIuCp1AlvgknzaNRkqL179ybGTUxMhIVBgwZBR9euXY8cOYLpsR16Rz1qGBSbd7wuhpM3Sh/8hQJHjx4VexYMHRgCQlKIQOGK9BTz69uxfMojuw27JZkDAvlHHib4vUq44fzyC2HMal7JxWris7kgzMUdIcCdOHFidHQ01XXr1tlMJscnH2l+IhlUzI2QgIGQlxYCtOr1D+D0ctvV9w7nFGjuu0dyum43xf7+e9qf5UiGNj3FsmcXYZsyoBHobD3wtkLH6pexQZyOW2+9lZuSkpKSk5OTnZ1NdAeWLl2qK7/cmI59+/ahRkiwefPmVtEB2HZj7gvCgcGIde9uim6yFPNywwnAvOYmuQC+dJg2rMWs2u12KCDeZzpSZMAfUPPxxx/XetyN6UCBEELIbAUdtbUi7pTeeqUkcLEp0luygbfrHvuZFLNe9R2HNLy0RNBhzH0eO0LWQpI6YcKEmJgYZsSIEO9v2LCB6A5RmGQNh9GHjnAgeDoAB8R+4iPcrWQ4ZcWkcgfUDDUsWWR9a6ftvSO+xf7Rh1IeTPYh7wb2Qp2ViTXV//ZXIgOCkUuXLhUWFmImz5w5U1RURJhLu+RZ1uVJ76UzUi1vvyVmv3DhAqsKCT77THpZgUz+FvqKKQSaSwdgoewbVlPyEfWMNFEItCufeERyvW4pZpfijtnTiTsI+aWXSYFCNSDRpNVw4jh3ctzxoWi/hkypLwgubUeP6B6foB3/ADFoU0WKRAb0JTGhmzCxuCHT1o2SGyJrmDe7KZdMN6ySRGhSHHfTdUHx69u2bbsrRFi+fHno6BDweK5ebEcPSx84kKEO6EtWIg30eklSpCSqf7w25yfWv+4RAhtAfi8/QzpcqYmmzevJgEU7USyXKyQQn1qBENDRTJDFEKSKW+P450mJI+B01OT/UT1iEBcBnTGotCkDZBDyWna/Sbwvh3yPuf5V1KBDaBF6OiQl7XYyUde5Lwnn64vxpZWS4ewfj0V0FZ0TloK+jrOnK6c8gunBZ+NxMUZCjoDz809JeeEC50XW7zUr8R4QH2iEBBcvXhQsh4EOh9125JB40yHOwn/KgL4wYnh6gdcnzZG8xp9Wq+/OIMbFVbsvlyk2lQU6naZN6yVHnpaMxSEb8DW316gpbQCPukI77n4CU0l//u0fX1/Q2bD4SfyrmLseUCB9XiFTpp8zE2MhceH1mra8KuUpcpiHteZ+KQNkrFq1iqA+JJg2bVq46HB/c4lMFx3YTyltt1rrC4aADW/ABZBsatE5yVtzKe68o2b1SxgX27F3NWPulY7MyCHwImyNMkCG0+kkzQkJSKaFzDDQUXpR7DMhBsGV0vptwCiQCkohP0nQvcOxJhI7copoWDgPC6r0CzPCQEfZN9J3GpLiNGNGEZhyEZpTHKdPEXfiYqBAsCmVfn2qpj9hP05a/B19phl6Ojw6LTpIdjS5138UC6LIx0SKVsPwkVVTCD0dpFvOT89wU1Q/HtBQw+YX/O7IIba//w2f3djWhA9hoAO43V5jtaeqkpMSZCHBxQEFsrthRejpuK7RXDry8/PFB0ttG839Acd/GxTlZbTT8W10LF68uOi/AKgp9FWUlxGAjnZTqkA8DjcdXq+XxAEIz8q/Aav172nChGuFDg5qHxniK55qtVpUxU8PaRRVusndw4Xm0sGlqqmpUZrCgMLCQjGRmOXy5cuiyh9UaRRVusndw4LKysoFCxaIiZQmGX6Vjh07RkZGjhw58tixY0pTGGA2m8UXdcXvMbkXosofVGkUVbrJ3cOCQ4cOZWVloSwqK00y/OgYOHBg165de/bs+dRTT7FLrO87DpzDDdRxOp2ohoKoibKorDyT4UdHXl5eenp6RETELbfcMnbs2O3bt4vvgLcZVFdX79q1C9VQEDVRtv4bmAJ+dHBQ165d271796ioqJtuuikuLm7IkCHKd1nbBIYOHdq7d29UQ0HURFnfH1ADPzoAB2nv3r333HNP586duVrC2LQloBSqoSBqClvui4Z0AKvVevLkyZ07dxYUFCjfZW0FRowYwfTR0dFpaWkbNmxQWpsNhjCQ4Wxpdna20toKoBSqoaD4DX0DBKAjVOCuEkotW7asW7du8fHxS5Ys8bT8tx0MYSDDY2NjV61ahUDEKs/CgDDSwdIJpbiuHNGMjIzDhw8HEWgyhIEMx/INGzYMgUEIaT7CSAdWas2aNUlJSTfeeCOhncvlCmJjGcJAhiMEUQhsYPxCizDSQdiSk5ODb09MTOTSKq1BgeEIQRQCRbQWJoSLDo40QTcXHkuOh8N0KQ+CAsMRgigEIjZ89yVcdODDcnNzO8j/ew5HnRxBeRAUGI4QRCEQsY0dZKgQLjpUKhUHm2gHp/DJJ5+00h0wHCGIQiBiA/4PaCFBq+jAdR88eHDjxo3KV1h9MHv27JiYGNwB8cKUKVOU1lYAIYhCIGIRrrT6gGWwmIDRRPPRKjrKysqIkdgxEfB9v2AZLIYlKYsLCq2io7i4mPvMUkiTMXL9vycwNQtgGSym8f+b1yK0io6SkhIOMOtISEhYtGjRe98TmFr8upfFsCRlcUGhVXRotdpJkyZh7dkcQsYVK1acOHHCbrcTKYUb2IjS0tLjx48zKVOzAJbBYliSsrig0Co6WFZhYWFqaiqrITFJT0+fPHnyjh07DoQfmzZtmjVr1qOPPsqkTM0CWAaLYUnK4oJCq+gApFh79uwZN25cjx49vhebyqRMzQJYRhApYgO0lg6Bo0ePjh49WvwI4zsGkzI1C1CW0jqEho42g3Y6/NBOhw/q6v4NCbeZh/ryJYsAAAAASUVORK5CYII=;" vertex="1" parent="1">
          <mxGeometry x="640" y="520" width="34.4" height="34" as="geometry" />
        </mxCell>
        <mxCell id="dIxcsWShx4_83990aHsz-8" value="" style="shape=image;verticalLabelPosition=bottom;labelBackgroundColor=default;verticalAlign=top;imageAspect=0;image=data:image/png,iVBORw0KGgoAAAANSUhEUgAAAFoAAABZCAIAAAAxXqT7AAAAAXNSR0IArs4c6QAAAARnQU1BAACxjwv8YQUAAAAJcEhZcwAAFiUAABYlAUlSJPAAABAvSURBVHhe7ZwLdJTF2cebRLnkKBzxEEKAYC4CJg2tMeFqEEyLaFChgFbBFj6ghVLKQUAqIhQVTNWES0Hu/fSTVECwQKWAiIpioYCaT4mFGIIhm70ku9ns/Zqc/t53XtLdZIPJZlchzf/M4WTmnXlmnv/MPJd3d/lBXTt80E6HH9rp8EM7HX4IQIdKpZo5c2aXLl2ioqJ+0OaAUqiGgqipKOyDhnQUFxcvWbIkISHhhhtuiIiIUGS0IaAUqqEgaqKsovYV+NEBYXSKjY3t1KlTcnJyTk5OXl7egTYE1EEpVENB1ETZBmfEj45Zs2YlJibSNTMzc9OmTWfOnHE4HMqzNgHUQSlUQ0HURFlUVp7J8KMjPj4+Ojoa8higNNXV1V6BUm/UolR8Olz7QEHURFlUVppk+NHRoUOHyMjIsWPHQqHSVFen0+mekGE0GqlaLBZRFcfM7XbPnz+f6ldffSV3vz6AgqiJsqisNMnwo0MYm+nTp0OB0lRXV1paKtrVajVVg8EgqkVFRVQ5fn369KH6/vvvy92vD7Ds/Px8oYjSJCMAHStXrmTPlaa6upqamvUyrFYrVQSJKrxQ9Xg8r732GtXy8nK5+3UDLKvQV6nLCEAH/ZR6m0Y7HX5oGR14in379j3fdjFq1Cihr9Bd4Gp04C9ES9uG0F3ganQUFBTgRNsqBg8eLPQVugs0SUebR8tsR5tH8HRwcTwVKsepf9gOvWP96576Yjt4wP7xcXfpxVqPR+l6/SAYOiDCa7W6Sr6ufmG59qHRqh/1L0/sWV9UP0zS/DTLsHCes/Azr6mGzsqwUEOv11+QUVJS4vV6aXE6naJFoKqqSvQkaFSamoBGoxHrDIYOr9ls2f0XzQPZ5f3jywf0rUhPUQ+/S313BqViWHrFXSnldyTAiyb7btOGtZ4rawo58Itibd26dbPZbLSgmGgRIFUXPbdt26Y0NQHcZfB0OD//VDfpofLbe0s6jx5R/YdnbO/stx97l2Ldu9u4agVHRnqa3AvKrO/sV4aFGtcEHR693vjSStXAfqqUBN3PxzuLznFxap3OWpdLKk6n12Z1q8qrfjOTY8LFqZo3m2o4rgzpUqUMLoWQT64kWgTIs0VPu92uNDUBk8kkeraYDvvxD3SPjuOaaB66z/lFoaXGWFFRcfr0aZJXcOrUqUuXLtmsVsfFkqq5s8oH3IYdsewsuF7MagvpqK01bd2ozsqsyEyrfu7ZWq+XTP/pp59OSEgQ3Xr16jVjxozCwkK2y/LmDqlnRqp+wdxan2z4WkaL6TA88xTmU/vwGNvhg+hMIt+3b9+IiIgbZURGRsbExCxcuJBHjk/PVk6bXN6vj+a+kVwiWVgowRTfipb2bDEd+oXzypPidI9PxI8iJTc3Fxa6d+/+sIzbbrstKipq/PjxPCL00D/5W8xtxYjB4aDj5MmTc+fOfaAJzJkz58SJE6Kn6/xXxpV/qPyfKQGL4ZlF9g+V11QtoEPi0OHQTZmEhpVTHnGe+5IGYd5jY2N/IaNfv35U09PTtVqtqegc0YdEx/CMcNCxfv16fIq8ugDgUV5enuhJZFiR8UNWErAQNxlffI6dpmfL6PBWG7QP/hQRlb/8uevCv2hZvXr1zTff3KVLlyEyevTo0blz5zFjxkjm+godqkEDPVolzmkK2FqPweAu+8ZVUuwqvlBf3JcuSmPtkh9tALETUP9GI2RmZvKo3tFadhWwDPWoIZa33vQNoClid7FuQdFhMWsnPijRMfUx19fFtOzfvx8WOnXqJLp16NAhNTU1Pz+fR+5vSg0LfifR8eMB0s1qwrnQE0PrJsZ97lnckAjh6kvF0Durfj3NevCA5Mu9Xvoqw67QQRqq1H0AETxqQId+zkzf4QLm//uz9CgIOvgbcVXzJXNAxOE480+q+PaNGzempaWJbsnJycuWLauurqaz6+sL+t/NorNq+F3cMllYABCnmF5dp8nJxuhilejvV2i5vTeOrOpXU53nvoARZdi1QAdjjHm5+E6CUfOO15AOHA4HSYFBhtFoJEAUs9o/OKab+KBq4O2Vv3yMCE0a3gj0tLz5hnbc/QR1qtREoljOiGnTevP2zaYtrxpfXsWt5IDAiOrOOwyL53u0WmXkFTrwa/KbCj8kJSXxqAEdFYMGVq9YanxhuW/B67WKDsveXZr77+X8V82e7qk2CM0bQJBk/ONKdpVExvjKiwHjDrbara7AtkMZpk7/5FxcgEen89YYvSYT6Z9HX4V7Mv/lDdIfFk1mZDt0sP6gbd26NS4uTiyvMXr27ImtFT1tR/7OWCQELExdk/9SUHSQsHxRWDXjF9IBHvwj69/2BXQZ6EniT2xC2sK/HBPfQ16PWrudswplBDL6+XPMn50lMeWg6XQ6tVpNlkn0zdGzaNTm/93K8UEa2+i6+LUYfv78eRjhjATEli1b6j/0IkuwvLWz5k+rAxZzwetcQ9GzxXRI2/7Ki5wOKR/59VSPQd/wgFB3OgzP/h6+VGnJ+nmzvVZLwEOE6phJ+pAHE/vDRVlZ2dSpU8WeY5UzMjJ2797N7SMtElZW+9B99o8+UMaHAS2nA2X//3Mp3EyKgxHr27tr5WyyHpgJxz9OiAuvmzDW9u6hgFwAcn/uMxa06jcz8KkchMmTJ8NF/VdIOnbsmJWVdfbsWc5gzZqXkUmMwD4r48OAFtMBvNXVpvVrJI+YFFc59XFX8XnlgQyU1EvJW1/yt+qli90VAb5AIuCp1AlvgknzaNRkqL179ybGTUxMhIVBgwZBR9euXY8cOYLpsR16Rz1qGBSbd7wuhpM3Sh/8hQJHjx4VexYMHRgCQlKIQOGK9BTz69uxfMojuw27JZkDAvlHHib4vUq44fzyC2HMal7JxWris7kgzMUdIcCdOHFidHQ01XXr1tlMJscnH2l+IhlUzI2QgIGQlxYCtOr1D+D0ctvV9w7nFGjuu0dyum43xf7+e9qf5UiGNj3FsmcXYZsyoBHobD3wtkLH6pexQZyOW2+9lZuSkpKSk5OTnZ1NdAeWLl2qK7/cmI59+/ahRkiwefPmVtEB2HZj7gvCgcGIde9uim6yFPNywwnAvOYmuQC+dJg2rMWs2u12KCDeZzpSZMAfUPPxxx/XetyN6UCBEELIbAUdtbUi7pTeeqUkcLEp0luygbfrHvuZFLNe9R2HNLy0RNBhzH0eO0LWQpI6YcKEmJgYZsSIEO9v2LCB6A5RmGQNh9GHjnAgeDoAB8R+4iPcrWQ4ZcWkcgfUDDUsWWR9a6ftvSO+xf7Rh1IeTPYh7wb2Qp2ViTXV//ZXIgOCkUuXLhUWFmImz5w5U1RURJhLu+RZ1uVJ76UzUi1vvyVmv3DhAqsKCT77THpZgUz+FvqKKQSaSwdgoewbVlPyEfWMNFEItCufeERyvW4pZpfijtnTiTsI+aWXSYFCNSDRpNVw4jh3ctzxoWi/hkypLwgubUeP6B6foB3/ADFoU0WKRAb0JTGhmzCxuCHT1o2SGyJrmDe7KZdMN6ySRGhSHHfTdUHx69u2bbsrRFi+fHno6BDweK5ebEcPSx84kKEO6EtWIg30eklSpCSqf7w25yfWv+4RAhtAfi8/QzpcqYmmzevJgEU7USyXKyQQn1qBENDRTJDFEKSKW+P450mJI+B01OT/UT1iEBcBnTGotCkDZBDyWna/Sbwvh3yPuf5V1KBDaBF6OiQl7XYyUde5Lwnn64vxpZWS4ewfj0V0FZ0TloK+jrOnK6c8gunBZ+NxMUZCjoDz809JeeEC50XW7zUr8R4QH2iEBBcvXhQsh4EOh9125JB40yHOwn/KgL4wYnh6gdcnzZG8xp9Wq+/OIMbFVbsvlyk2lQU6naZN6yVHnpaMxSEb8DW316gpbQCPukI77n4CU0l//u0fX1/Q2bD4SfyrmLseUCB9XiFTpp8zE2MhceH1mra8KuUpcpiHteZ+KQNkrFq1iqA+JJg2bVq46HB/c4lMFx3YTyltt1rrC4aADW/ABZBsatE5yVtzKe68o2b1SxgX27F3NWPulY7MyCHwImyNMkCG0+kkzQkJSKaFzDDQUXpR7DMhBsGV0vptwCiQCkohP0nQvcOxJhI7copoWDgPC6r0CzPCQEfZN9J3GpLiNGNGEZhyEZpTHKdPEXfiYqBAsCmVfn2qpj9hP05a/B19phl6Ojw6LTpIdjS5138UC6LIx0SKVsPwkVVTCD0dpFvOT89wU1Q/HtBQw+YX/O7IIba//w2f3djWhA9hoAO43V5jtaeqkpMSZCHBxQEFsrthRejpuK7RXDry8/PFB0ttG839Acd/GxTlZbTT8W10LF68uOi/AKgp9FWUlxGAjnZTqkA8DjcdXq+XxAEIz8q/Aav172nChGuFDg5qHxniK55qtVpUxU8PaRRVusndw4Xm0sGlqqmpUZrCgMLCQjGRmOXy5cuiyh9UaRRVusndw4LKysoFCxaIiZQmGX6Vjh07RkZGjhw58tixY0pTGGA2m8UXdcXvMbkXosofVGkUVbrJ3cOCQ4cOZWVloSwqK00y/OgYOHBg165de/bs+dRTT7FLrO87DpzDDdRxOp2ohoKoibKorDyT4UdHXl5eenp6RETELbfcMnbs2O3bt4vvgLcZVFdX79q1C9VQEDVRtv4bmAJ+dHBQ165d271796ioqJtuuikuLm7IkCHKd1nbBIYOHdq7d29UQ0HURFnfH1ADPzoAB2nv3r333HNP586duVrC2LQloBSqoSBqClvui4Z0AKvVevLkyZ07dxYUFCjfZW0FRowYwfTR0dFpaWkbNmxQWpsNhjCQ4Wxpdna20toKoBSqoaD4DX0DBKAjVOCuEkotW7asW7du8fHxS5Ys8bT8tx0MYSDDY2NjV61ahUDEKs/CgDDSwdIJpbiuHNGMjIzDhw8HEWgyhIEMx/INGzYMgUEIaT7CSAdWas2aNUlJSTfeeCOhncvlCmJjGcJAhiMEUQhsYPxCizDSQdiSk5ODb09MTOTSKq1BgeEIQRQCRbQWJoSLDo40QTcXHkuOh8N0KQ+CAsMRgigEIjZ89yVcdODDcnNzO8j/ew5HnRxBeRAUGI4QRCEQsY0dZKgQLjpUKhUHm2gHp/DJJ5+00h0wHCGIQiBiA/4PaCFBq+jAdR88eHDjxo3KV1h9MHv27JiYGNwB8cKUKVOU1lYAIYhCIGIRrrT6gGWwmIDRRPPRKjrKysqIkdgxEfB9v2AZLIYlKYsLCq2io7i4mPvMUkiTMXL9vycwNQtgGSym8f+b1yK0io6SkhIOMOtISEhYtGjRe98TmFr8upfFsCRlcUGhVXRotdpJkyZh7dkcQsYVK1acOHHCbrcTKYUb2IjS0tLjx48zKVOzAJbBYliSsrig0Co6WFZhYWFqaiqrITFJT0+fPHnyjh07DoQfmzZtmjVr1qOPPsqkTM0CWAaLYUnK4oJCq+gApFh79uwZN25cjx49vhebyqRMzQJYRhApYgO0lg6Bo0ePjh49WvwI4zsGkzI1C1CW0jqEho42g3Y6/NBOhw/q6v4NCbeZh/ryJYsAAAAASUVORK5CYII=;" vertex="1" parent="1">
          <mxGeometry x="640" y="460" width="43" height="34" as="geometry" />
        </mxCell>
        <mxCell id="dIxcsWShx4_83990aHsz-9" value="" style="shape=image;verticalLabelPosition=bottom;labelBackgroundColor=default;verticalAlign=top;aspect=fixed;imageAspect=0;image=data:image/png,iVBORw0KGgoAAAANSUhEUgAAAF0AAABQCAIAAAD0je5KAAAAAXNSR0IArs4c6QAAAARnQU1BAACxjwv8YQUAAAAJcEhZcwAAFiUAABYlAUlSJPAAAA00SURBVHhe7Zt5VFXVHsdfo1RWJg0aqIkgyORD0yzFhPA5VKjQI3B4EaI8RRPNZUHmU8RESV8aigbaUkANcEifArJeOdSKyIHpgsC9wh2YRxlsbr1vnt/lcfe559yBey/+wWftPwT2Pmfv796/3/799j7+5Y9+tNGvi3b6ddFOvy7a6ddFO/26aKdfF+3066Kdfl20c1fo8ttvv6lUqvr6evr5LqDvdcnLy5s5c+bAgQMHDx68bNkyCER/6FP6UpfKyspFixYNGDDgLz2AOtHR0bdu3aJKfUTf6AKTiYyMfPjhh0kMHra2tgcOHOjq6qIGFsfSunR2du7atcvGxoYEEGXcuHFnzpyB96HGFsRyuvz6669paWmurq40aP247777ZsyYAR9ET7EUltDl999/v3z58pQpU+655x4aLg8nJ6chQ4bQDzwefPBBeKKqqip6ovkxuy4SiSQgIODee++lIfJ47rnnEhMTf/755+bm5nXr1j3++OP0Bx7Ys6KioiyznZtRF+y4q1ateuSRR2hYPKytrbH1QA5qcIfy8vLg4GBmk+oJfNPu3bs7OjqogXkwiy7o9NatW59++mkaCg8rK6uwsDCFQkENNIHdwaH4+PiI2J2Li0t6err5XLKJdfnpp59SU1NHjBhB3ecBPzpnzpyioiJqIAzGfPbs2bFjx1JLHlDN09Pz22+/hY7UxnSYTBdsN5mZmRMnTqRe88AwJk+enJOTQw30A35n3759dnZ29BQe999/P/yXPkIbhGl0uXr1qq+vL9YCdZaHo6NjSkoKVhM1MBD4IHgihML0OB7wYhERESbMIXqrC7oSGhr60EMPUQd5PPnkk9u3bzdJXC+Xy5cuXYo9mx7NAx4tNjbWJFGy8bo0NTVt2LDhscceo07xwLa6evXqxsZGamAiYDLwUCJrExv/4cOHjV6bHMbogglJSEhACkMd4YEpnT9/fklJCTUwNXC02dnZ8FYiGxY8XVZWltEblmG64DWnTp3y8PCgl/NAR6dNm/bNN9+YY49gwIpITk52cHCgd/Pg9r5r165RA0MwQJfc3NxXXnlFJHJ1dnY+ceLEL7/8Qg0sAjxXXFwcvBh1ggdiJXhApVJJDfRDL10qKythFyImDZuKj4/HnkoNLA68GPajRx99lDrEA34Q3lD/KFm3Lm1tbfb29vR4HoMGDVq/fn1DQwPV7lPg0YKCgkQ2rMDAQKqqC926HD16lJ6qCVKYxYsXS6VSqnd3wOXuXl5eWl3yAw88UFtbS1VF0a3LkSNH6KmajBw58uLFi1TpbgKR9/79+7UeBiI4rqmpoXqi9MqOIP+KFStMHqH0BolEMn36dOofjzfffJPq6UIvv3vz5k0/Pz+hnQjJi1lTWz3p7OzcsmWL0PENEoXIyEhT+l0O7hRy2LBh9B5NsFX5+/sjTqfaFgcR07hx46g3PBABXrlyharqh766cMBkwsLChBy+tbX1nj17ehmAGwrSkZUrV8KiqROaPPHEE7t27TKiS4bpwgF3K3IsMmXKFONCTEPBEs7IyBA664HVz5s3Dx6AahuIMboAGOqmTZuE4ihkjAhqzHo3hgEHBAQIhZpIHRFeQDiqbThG6sJRWFjo7e1NfeHh6upq6CmUPmC0sNannnqKXqMJlFq+fHldXR3VNha9dFGWlUnWRtSHLCo4msoE++hlYmKi0FEuehkSEqJnKKUPsFA4UXo6D3d3d35I1dbScnXHttrg+QWxW/Bv+q0udOvSXFdXM+mvSruhKCq7oTfe8JXxfLtCoViwYIHQqraxsUHi25tVDdrb2z/44AOhq1tYbnR0NLMN442SE8flnhO4zqNIFwbomejr1uV68qHu53Kl2nnk9Q+j2jTvN7gjCKEIEF7w9ddfv3HjBtU2BIzk/Pnzbm5u9CxNEO/7+Pjk5+dTbTXK0tLyt4JU9jYaPbe3qb4poxqi6NYlPzVZaTek59O5In9pfHHGF4z8LS0ta9asEVo4CLq2b99u0EFEc3NzcHCwyDaclJTEmPbtrq7ibVtVbvZMh1GgS61cr0tL3brcam1VTJ3IvKC7SAP95BIJVVWTl5c3YcIE6juP8ePH5+bm6lzPkC81NVXochaZDoJ6JtnBmi3Nyqr1epHpZHcpWRpCVXWhl9+tqaqU/HOxarQt8xqu1LjZF3+0mXFpXV1dcXFxmE8ahyZWVlZYVsxNY09gca+++qrQMeXo0aNPnz7NZB6qioqKsFCVg0An3R2ubdvSafI8AJ2QZGfV/u1l5n3dRe71YvF/TjOrAMObPXu20PAcHBwwPKbJjz/++PHHHwsJOmDAgIiICEZQzIHk009qxjoxXeKKatSzFW8FVhl42KyvLhzQuzAurtrFjnk3VzBX0pBFKpnGiQzMISUlRcQcAgMDu82BM0AhHZEBfffdd4yO5ZcuKmd6Mz3pLrWTxxeeyDDiaNUwXTiqpVIZxq/p6rtLjatd/ic7O9rbqfYdGhoa4D5FEquEhARYllAFLB84bCbNqVXIy99ZIdgNl5HFG9e3t7VRbQMxRhcAsyo+dVLh9RLTm+6imPFy0fnsnnOLf2dnZ7u4uNBY9QNrB46G2eBv375dkLiv9nlX5qVcgeHI5vvLrvcqRzNSF47W5uaSmE3VY0YyPeNK9ehhBcuW1Ck0Dh+QNEVGRorcT/Zk6NChhw4dYqyg4vvcyjmzlKOeZV7HldoX3AtSk3t/Aq+XLkjSwsPDkZ4ePHiQ/8qqomJZkD9miekiV6o9xlzbtwfelGrf4fr16+KfT3EJBJPmNNXVFa1bo3IawbyCiuPwkvfebeJ9NcTdbfv6+sbExCBopt/qQrcura2tSE+pv3fOeOD86G9qEHHf+OIoIj22r3cKsofy2T7lly/1NCusgt27d2u994GtIcCleneAZylMTa6e4MY8mSuYkptzZ1XkfU+11eAVR44c6XmW5ufnR3/ThW5dEFzRU9Vgs1y5ciX/e67m+vqCqPeQJTD95kq14/D8d1c1aH5yIJPJ/P39u09Ikf5ERUW1aTrLyqtXygPmCa1H+fOuBUn7mfUIioqKZs2axSxJU557C92TDB8+HMbPZINYEZU/5FX4vYY1wgyAK/Ln3YoPf97TZeAJJ0+eDAoKCg0NZQ60kIIVbfpQ5SQgtINt0arl9byLRLgwiKv1bAi6mOyeBDaJ+JIerAlmw9vbu7CwkKqqwbDzPz+gmujOjARF8adZDZH5vyb94QeqrY0/U+H0tGoBw0SRzfYpu3SBaqvBLvnll1+KfESEpJ+q6kIvv6tUKjGfQskbFv/777/f1NREtdU01tQUr3lH5TScGRJXqp1GSNZHNmo7QJIXF8v+ESS04v505J9+gq2aaqspKysTubRAyrphwwb9P43RSxeAqcjMzBRK9sGoUaPS09MZswKlly6W+c4UNKuXxucfTe1udautTbI1psbNganGFZWDTcmyUBXvhrOjo0PkhgSLGpuRhJfciqOvLhzowebNm4WOdbG5ogeYN6qtBnNbuDe+ZqwjM06uIGC9ufDvVUWFpefOKoUDxTrvycVZmUyuCBAruru7Uw94YCdNS0vjz5ZODNOFQyqVzp07V2jFwqygHf/Qu06hkIYvVY0exgyYK1BHaMdRudkXxsXe5pmAXC6HvxAKghA6rl271uizd2N0Adh3jh8/7ujoSL3g4ezszD8KAGX/zZHPnMaMXKhALFnwgqrSUmqsBm5i586dQt+8QKnp06f38q7GSF04WlpaRM5cuVwZEQrVVoOUsuTfO4TM6v9l2gtIhfkmcOHCBZFDL1tbW0QPFsoDxCkoKMD8CK3nwYMHx8XF8W/8VBUV0pCFWv1xteOIkuh/8c/uEUkuWbJE6BN5bJcmuSHhMIEuAGZ17NgxRHrURx5wjV999VXPPADgxxtnzyi8J3crAhdTHvQGfDDVUANZP/vsM6E7I0wJshPT/l8c0+jC0dDQEBERIWRWmM+3336b/38C2tvaCrd9VOvjqZgzo+hYKpM9A6Rjnp6eQusROXdCQoIRN9DimFIXDszb1KlTqdc8nnnmmb179/KHAY/AdyWNjY2rV6+2srKixprAfwUHBxv6QaGemF4XgEEmJSUJnV1i5idNmpSbm0u1tYGNLDk5WcQwPTw8vv76a8YwTYhZdOGACxT5KARmFR4ertVN5ufni3zzZG1tvWPHDpMbDoMZdeHAtorVQWPigRVx8ODBbp/S2tqKVGvgwIH0Z00QTyNN42/85sDsugCEYfHx8UJXHzArLy8vhGEIFEU+3h4zZsy5c+f4gaKZsIQuHNiJFi5cCGdJA9UEvxdKLJCOxcTEMHfy5sZyunDk5OSIJOUMXCJaXl5OjS2IpXUBmPnY2NhBgwbR6AWwt7fPyNCSB1iGPtCFo6KiAkm51mgNAUtkZCSSL6raF/SZLgDRB3Lunkk5XAx2aJP/Z0Uj6EtdONrb2zdu3IjtBllySkpKXxkOQ9/rwoEQxmJ7sD7cLbrcbfTrop1+XbTTr4t2+nXRxh9//A+3t4JyEmrurAAAAABJRU5ErkJggg==;" vertex="1" parent="1">
          <mxGeometry x="710" y="520" width="39.53" height="34" as="geometry" />
        </mxCell>
        <mxCell id="dIxcsWShx4_83990aHsz-10" value="" style="shape=image;verticalLabelPosition=bottom;labelBackgroundColor=default;verticalAlign=top;aspect=fixed;imageAspect=0;image=data:image/png,iVBORw0KGgoAAAANSUhEUgAAAF0AAABQCAIAAAD0je5KAAAAAXNSR0IArs4c6QAAAARnQU1BAACxjwv8YQUAAAAJcEhZcwAAFiUAABYlAUlSJPAAAA00SURBVHhe7Zt5VFXVHsdfo1RWJg0aqIkgyORD0yzFhPA5VKjQI3B4EaI8RRPNZUHmU8RESV8aigbaUkANcEifArJeOdSKyIHpgsC9wh2YRxlsbr1vnt/lcfe559yBey/+wWftPwT2Pmfv796/3/799j7+5Y9+tNGvi3b6ddFOvy7a6ddFO/26aKdfF+3066Kdfl20c1fo8ttvv6lUqvr6evr5LqDvdcnLy5s5c+bAgQMHDx68bNkyCER/6FP6UpfKyspFixYNGDDgLz2AOtHR0bdu3aJKfUTf6AKTiYyMfPjhh0kMHra2tgcOHOjq6qIGFsfSunR2du7atcvGxoYEEGXcuHFnzpyB96HGFsRyuvz6669paWmurq40aP247777ZsyYAR9ET7EUltDl999/v3z58pQpU+655x4aLg8nJ6chQ4bQDzwefPBBeKKqqip6ovkxuy4SiSQgIODee++lIfJ47rnnEhMTf/755+bm5nXr1j3++OP0Bx7Ys6KioiyznZtRF+y4q1ateuSRR2hYPKytrbH1QA5qcIfy8vLg4GBmk+oJfNPu3bs7OjqogXkwiy7o9NatW59++mkaCg8rK6uwsDCFQkENNIHdwaH4+PiI2J2Li0t6err5XLKJdfnpp59SU1NHjBhB3ecBPzpnzpyioiJqIAzGfPbs2bFjx1JLHlDN09Pz22+/hY7UxnSYTBdsN5mZmRMnTqRe88AwJk+enJOTQw30A35n3759dnZ29BQe999/P/yXPkIbhGl0uXr1qq+vL9YCdZaHo6NjSkoKVhM1MBD4IHgihML0OB7wYhERESbMIXqrC7oSGhr60EMPUQd5PPnkk9u3bzdJXC+Xy5cuXYo9mx7NAx4tNjbWJFGy8bo0NTVt2LDhscceo07xwLa6evXqxsZGamAiYDLwUCJrExv/4cOHjV6bHMbogglJSEhACkMd4YEpnT9/fklJCTUwNXC02dnZ8FYiGxY8XVZWltEblmG64DWnTp3y8PCgl/NAR6dNm/bNN9+YY49gwIpITk52cHCgd/Pg9r5r165RA0MwQJfc3NxXXnlFJHJ1dnY+ceLEL7/8Qg0sAjxXXFwcvBh1ggdiJXhApVJJDfRDL10qKythFyImDZuKj4/HnkoNLA68GPajRx99lDrEA34Q3lD/KFm3Lm1tbfb29vR4HoMGDVq/fn1DQwPV7lPg0YKCgkQ2rMDAQKqqC926HD16lJ6qCVKYxYsXS6VSqnd3wOXuXl5eWl3yAw88UFtbS1VF0a3LkSNH6KmajBw58uLFi1TpbgKR9/79+7UeBiI4rqmpoXqi9MqOIP+KFStMHqH0BolEMn36dOofjzfffJPq6UIvv3vz5k0/Pz+hnQjJi1lTWz3p7OzcsmWL0PENEoXIyEhT+l0O7hRy2LBh9B5NsFX5+/sjTqfaFgcR07hx46g3PBABXrlyharqh766cMBkwsLChBy+tbX1nj17ehmAGwrSkZUrV8KiqROaPPHEE7t27TKiS4bpwgF3K3IsMmXKFONCTEPBEs7IyBA664HVz5s3Dx6AahuIMboAGOqmTZuE4ihkjAhqzHo3hgEHBAQIhZpIHRFeQDiqbThG6sJRWFjo7e1NfeHh6upq6CmUPmC0sNannnqKXqMJlFq+fHldXR3VNha9dFGWlUnWRtSHLCo4msoE++hlYmKi0FEuehkSEqJnKKUPsFA4UXo6D3d3d35I1dbScnXHttrg+QWxW/Bv+q0udOvSXFdXM+mvSruhKCq7oTfe8JXxfLtCoViwYIHQqraxsUHi25tVDdrb2z/44AOhq1tYbnR0NLMN442SE8flnhO4zqNIFwbomejr1uV68qHu53Kl2nnk9Q+j2jTvN7gjCKEIEF7w9ddfv3HjBtU2BIzk/Pnzbm5u9CxNEO/7+Pjk5+dTbTXK0tLyt4JU9jYaPbe3qb4poxqi6NYlPzVZaTek59O5In9pfHHGF4z8LS0ta9asEVo4CLq2b99u0EFEc3NzcHCwyDaclJTEmPbtrq7ibVtVbvZMh1GgS61cr0tL3brcam1VTJ3IvKC7SAP95BIJVVWTl5c3YcIE6juP8ePH5+bm6lzPkC81NVXochaZDoJ6JtnBmi3Nyqr1epHpZHcpWRpCVXWhl9+tqaqU/HOxarQt8xqu1LjZF3+0mXFpXV1dcXFxmE8ahyZWVlZYVsxNY09gca+++qrQMeXo0aNPnz7NZB6qioqKsFCVg0An3R2ubdvSafI8AJ2QZGfV/u1l5n3dRe71YvF/TjOrAMObPXu20PAcHBwwPKbJjz/++PHHHwsJOmDAgIiICEZQzIHk009qxjoxXeKKatSzFW8FVhl42KyvLhzQuzAurtrFjnk3VzBX0pBFKpnGiQzMISUlRcQcAgMDu82BM0AhHZEBfffdd4yO5ZcuKmd6Mz3pLrWTxxeeyDDiaNUwXTiqpVIZxq/p6rtLjatd/ic7O9rbqfYdGhoa4D5FEquEhARYllAFLB84bCbNqVXIy99ZIdgNl5HFG9e3t7VRbQMxRhcAsyo+dVLh9RLTm+6imPFy0fnsnnOLf2dnZ7u4uNBY9QNrB46G2eBv375dkLiv9nlX5qVcgeHI5vvLrvcqRzNSF47W5uaSmE3VY0YyPeNK9ehhBcuW1Ck0Dh+QNEVGRorcT/Zk6NChhw4dYqyg4vvcyjmzlKOeZV7HldoX3AtSk3t/Aq+XLkjSwsPDkZ4ePHiQ/8qqomJZkD9miekiV6o9xlzbtwfelGrf4fr16+KfT3EJBJPmNNXVFa1bo3IawbyCiuPwkvfebeJ9NcTdbfv6+sbExCBopt/qQrcura2tSE+pv3fOeOD86G9qEHHf+OIoIj22r3cKsofy2T7lly/1NCusgt27d2u994GtIcCleneAZylMTa6e4MY8mSuYkptzZ1XkfU+11eAVR44c6XmW5ufnR3/ThW5dEFzRU9Vgs1y5ciX/e67m+vqCqPeQJTD95kq14/D8d1c1aH5yIJPJ/P39u09Ikf5ERUW1aTrLyqtXygPmCa1H+fOuBUn7mfUIioqKZs2axSxJU557C92TDB8+HMbPZINYEZU/5FX4vYY1wgyAK/Ln3YoPf97TZeAJJ0+eDAoKCg0NZQ60kIIVbfpQ5SQgtINt0arl9byLRLgwiKv1bAi6mOyeBDaJ+JIerAlmw9vbu7CwkKqqwbDzPz+gmujOjARF8adZDZH5vyb94QeqrY0/U+H0tGoBw0SRzfYpu3SBaqvBLvnll1+KfESEpJ+q6kIvv6tUKjGfQskbFv/777/f1NREtdU01tQUr3lH5TScGRJXqp1GSNZHNmo7QJIXF8v+ESS04v505J9+gq2aaqspKysTubRAyrphwwb9P43RSxeAqcjMzBRK9sGoUaPS09MZswKlly6W+c4UNKuXxucfTe1udautTbI1psbNganGFZWDTcmyUBXvhrOjo0PkhgSLGpuRhJfciqOvLhzowebNm4WOdbG5ogeYN6qtBnNbuDe+ZqwjM06uIGC9ufDvVUWFpefOKoUDxTrvycVZmUyuCBAruru7Uw94YCdNS0vjz5ZODNOFQyqVzp07V2jFwqygHf/Qu06hkIYvVY0exgyYK1BHaMdRudkXxsXe5pmAXC6HvxAKghA6rl271uizd2N0Adh3jh8/7ujoSL3g4ezszD8KAGX/zZHPnMaMXKhALFnwgqrSUmqsBm5i586dQt+8QKnp06f38q7GSF04WlpaRM5cuVwZEQrVVoOUsuTfO4TM6v9l2gtIhfkmcOHCBZFDL1tbW0QPFsoDxCkoKMD8CK3nwYMHx8XF8W/8VBUV0pCFWv1xteOIkuh/8c/uEUkuWbJE6BN5bJcmuSHhMIEuAGZ17NgxRHrURx5wjV999VXPPADgxxtnzyi8J3crAhdTHvQGfDDVUANZP/vsM6E7I0wJshPT/l8c0+jC0dDQEBERIWRWmM+3336b/38C2tvaCrd9VOvjqZgzo+hYKpM9A6Rjnp6eQusROXdCQoIRN9DimFIXDszb1KlTqdc8nnnmmb179/KHAY/AdyWNjY2rV6+2srKixprAfwUHBxv6QaGemF4XgEEmJSUJnV1i5idNmpSbm0u1tYGNLDk5WcQwPTw8vv76a8YwTYhZdOGACxT5KARmFR4ertVN5ufni3zzZG1tvWPHDpMbDoMZdeHAtorVQWPigRVx8ODBbp/S2tqKVGvgwIH0Z00QTyNN42/85sDsugCEYfHx8UJXHzArLy8vhGEIFEU+3h4zZsy5c+f4gaKZsIQuHNiJFi5cCGdJA9UEvxdKLJCOxcTEMHfy5sZyunDk5OSIJOUMXCJaXl5OjS2IpXUBmPnY2NhBgwbR6AWwt7fPyNCSB1iGPtCFo6KiAkm51mgNAUtkZCSSL6raF/SZLgDRB3Lunkk5XAx2aJP/Z0Uj6EtdONrb2zdu3IjtBllySkpKXxkOQ9/rwoEQxmJ7sD7cLbrcbfTrop1+XbTTr4t2+nXRxh9//A+3t4JyEmrurAAAAABJRU5ErkJggg==;" vertex="1" parent="1">
          <mxGeometry x="720" y="460" width="39.53" height="34" as="geometry" />
        </mxCell>
        <mxCell id="dIxcsWShx4_83990aHsz-12" value="" style="verticalLabelPosition=bottom;sketch=0;html=1;fillColor=#282828;strokeColor=none;verticalAlign=top;pointerEvents=1;align=center;shape=mxgraph.cisco_safe.people_places_things_icons.icon9;aspect=fixed;" vertex="1" parent="1">
          <mxGeometry x="790" y="520" width="37.79" height="34" as="geometry" />
        </mxCell>
        <mxCell id="dIxcsWShx4_83990aHsz-13" value="" style="ellipse;whiteSpace=wrap;html=1;aspect=fixed;fillColor=#F5333F;strokeColor=#F5333F;" vertex="1" parent="1">
          <mxGeometry x="818" y="546" width="4" height="2" as="geometry" />
        </mxCell>
        <mxCell id="dIxcsWShx4_83990aHsz-14" value="" style="verticalLabelPosition=bottom;sketch=0;html=1;fillColor=#282828;strokeColor=none;verticalAlign=top;pointerEvents=1;align=center;shape=mxgraph.cisco_safe.people_places_things_icons.icon9;aspect=fixed;" vertex="1" parent="1">
          <mxGeometry x="801.11" y="465" width="37.79" height="34" as="geometry" />
        </mxCell>
        <mxCell id="dIxcsWShx4_83990aHsz-15" value="" style="ellipse;whiteSpace=wrap;html=1;aspect=fixed;fillColor=#F5333F;strokeColor=#F5333F;" vertex="1" parent="1">
          <mxGeometry x="829.11" y="491" width="4" height="2" as="geometry" />
        </mxCell>
        <mxCell id="dIxcsWShx4_83990aHsz-16" value="" style="rounded=0;elbow=vertical;html=1;labelBackgroundColor=#ffffff;startArrow=oval;startFill=0;startSize=6;endArrow=oval;endFill=0;endSize=6;jettySize=auto;orthogonalLoop=1;strokeWidth=1;fontSize=14;strokeColor=#F5333F;" edge="1" parent="1">
          <mxGeometry width="60" height="60" relative="1" as="geometry">
            <mxPoint x="910" y="529" as="sourcePoint" />
            <mxPoint x="900" y="520" as="targetPoint" />
          </mxGeometry>
        </mxCell>
        <mxCell id="dIxcsWShx4_83990aHsz-17" value="" style="rounded=0;elbow=vertical;html=1;labelBackgroundColor=#ffffff;startArrow=oval;startFill=0;startSize=6;endArrow=oval;endFill=0;endSize=6;jettySize=auto;orthogonalLoop=1;strokeWidth=1;fontSize=14;strokeColor=#F5333F;" edge="1" parent="1">
          <mxGeometry width="60" height="60" relative="1" as="geometry">
            <mxPoint x="900" y="520" as="sourcePoint" />
            <mxPoint x="910" y="510" as="targetPoint" />
          </mxGeometry>
        </mxCell>
        <mxCell id="dIxcsWShx4_83990aHsz-36" value="" style="rounded=0;elbow=vertical;html=1;labelBackgroundColor=#ffffff;startArrow=oval;startFill=0;startSize=6;endArrow=oval;endFill=0;endSize=6;jettySize=auto;orthogonalLoop=1;strokeWidth=1;fontSize=14;strokeColor=#F5333F;" edge="1" parent="1">
          <mxGeometry width="60" height="60" relative="1" as="geometry">
            <mxPoint x="920" y="584" as="sourcePoint" />
            <mxPoint x="910" y="575" as="targetPoint" />
          </mxGeometry>
        </mxCell>
        <mxCell id="dIxcsWShx4_83990aHsz-37" value="" style="rounded=0;elbow=vertical;html=1;labelBackgroundColor=#ffffff;startArrow=oval;startFill=0;startSize=6;endArrow=oval;endFill=0;endSize=6;jettySize=auto;orthogonalLoop=1;strokeWidth=1;fontSize=14;strokeColor=#F5333F;" edge="1" parent="1">
          <mxGeometry width="60" height="60" relative="1" as="geometry">
            <mxPoint x="910" y="575" as="sourcePoint" />
            <mxPoint x="920" y="565" as="targetPoint" />
          </mxGeometry>
        </mxCell>
      </root>
    </mxGraphModel>
  </diagram>
</mxfile>
